<?xml version="1.0" encoding="utf-8"?>
<!-- Generator: Adobe Illustrator 16.0.0, SVG Export Plug-In . SVG Version: 6.00 Build 0)  -->
<!DOCTYPE svg PUBLIC "-//W3C//DTD SVG 1.1//EN" "http://www.w3.org/Graphics/SVG/1.1/DTD/svg11.dtd">
<svg version="1.1" id="Layer_1" xmlns="http://www.w3.org/2000/svg" xmlns:xlink="http://www.w3.org/1999/xlink" x="0px" y="0px"
	 width="70px" height="70px" viewBox="0 0 70 70" enable-background="new 0 0 70 70" xml:space="preserve">
<g>
	<rect x="0.125" y="0.125" fill="#EEEEEE" width="69.875" height="69.875"/>
	<g>
		<polygon fill="#F58220" points="29.349,13.224 32.613,17.519 38.764,9.292 44.742,9.292 39.039,17.519 44.742,26.108 
			38.936,26.108 35.74,21.917 32.477,26.108 26.016,17.775 		"/>
		<g>
			<path fill="#F48220" d="M7.691,38.219H7.186v3.137H5.371v-7.821h1.815v3.061h0.376l1.767-3.061h2.283l-2.46,3.555l2.669,4.266
				H9.49L7.691,38.219z"/>
			<path fill="#F48220" d="M14.201,39.959h3.357v1.396h-5.172v-7.821h1.815V39.959z"/>
			<path fill="#F48220" d="M20.453,41.355h-1.81v-7.821h1.81V41.355z"/>
			<path fill="#F48220" d="M27.816,38.719l0.011,0.031c0.014,0.893-0.237,1.568-0.755,2.027c-0.517,0.461-1.25,0.691-2.199,0.691
				c-0.967,0-1.743-0.297-2.328-0.887c-0.586-0.592-0.878-1.365-0.878-2.32v-1.633c0-0.953,0.282-1.725,0.846-2.318
				c0.563-0.593,1.31-0.89,2.237-0.89c0.992,0,1.759,0.231,2.301,0.693c0.543,0.462,0.807,1.133,0.792,2.014l-0.016,0.033H26.06
				c0-0.481-0.102-0.825-0.306-1.032c-0.204-0.208-0.539-0.313-1.004-0.313c-0.408,0-0.722,0.164-0.94,0.492
				c-0.218,0.327-0.328,0.764-0.328,1.307v1.645c0,0.547,0.12,0.986,0.36,1.316c0.24,0.328,0.583,0.494,1.031,0.494
				c0.416,0,0.715-0.105,0.899-0.313c0.185-0.207,0.277-0.555,0.277-1.041H27.816z"/>
			<path fill="#F48220" d="M31.152,38.219h-0.505v3.137h-1.815v-7.821h1.815v3.061h0.376l1.767-3.061h2.283l-2.46,3.555l2.669,4.266
				h-2.331L31.152,38.219z"/>
			<path fill="#183E6D" d="M45.084,38.148c0,0.963-0.305,1.758-0.915,2.383s-1.408,0.938-2.394,0.938
				c-0.991,0-1.795-0.313-2.411-0.938s-0.924-1.42-0.924-2.383v-1.406c0-0.96,0.308-1.753,0.921-2.38
				c0.614-0.627,1.416-0.94,2.404-0.94c0.98,0,1.779,0.313,2.395,0.94c0.616,0.627,0.924,1.42,0.924,2.38V38.148z M43.274,36.73
				c0-0.559-0.132-1.017-0.395-1.375c-0.264-0.357-0.635-0.537-1.114-0.537c-0.491,0-0.866,0.179-1.126,0.535
				c-0.259,0.356-0.39,0.815-0.39,1.377v1.418c0,0.566,0.132,1.027,0.396,1.387c0.263,0.357,0.64,0.537,1.13,0.537
				c0.477,0,0.846-0.18,1.107-0.537c0.261-0.359,0.392-0.82,0.392-1.387V36.73z"/>
			<path fill="#183E6D" d="M52.711,41.355h-1.81l-2.862-4.92l-0.033,0.01v4.91h-1.814v-7.821h1.814l2.863,4.915l0.032-0.01v-4.905
				h1.81V41.355z"/>
			<path fill="#183E6D" d="M58.619,41.355h-1.81v-7.821h1.81V41.355z"/>
			<path fill="#183E6D" d="M65.264,34.931h-2.068v6.424h-1.814v-6.424H59.35v-1.396h5.914V34.931z"/>
		</g>
		<g>
			<path fill="#676767" d="M28.521,55.513h-2.749l-0.533,1.797h-2.26l3.015-9.242h1.149v0.006l0.006-0.006h1.149l3.021,9.242h-2.26
				L28.521,55.513z M26.267,53.862h1.758l-0.863-2.869h-0.038L26.267,53.862z"/>
			<path fill="#676767" d="M34.125,54.142v3.168H31.98v-9.242h3.529c1.096,0,1.965,0.279,2.609,0.838s0.965,1.293,0.965,2.203
				c0,0.909-0.321,1.643-0.965,2.199s-1.513,0.834-2.609,0.834H34.125z M34.125,52.491h1.384c0.465,0,0.821-0.128,1.067-0.384
				c0.245-0.256,0.367-0.585,0.367-0.987c0-0.41-0.121-0.746-0.364-1.009s-0.6-0.394-1.07-0.394h-1.384V52.491z"/>
			<path fill="#676767" d="M43.584,54.802l0.063,0.337h0.039l0.063-0.312l1.835-6.76h2.247l-2.996,9.242h-2.316l-2.984-9.242h2.241
				L43.584,54.802z"/>
		</g>
	</g>
</g>
</svg>
